<svg width="128" height="128" viewBox="0 0 128 128" fill="none" xmlns="http://www.w3.org/2000/svg">
<g clip-path="url(#clip0_22_244)">
<rect width="128" height="128" rx="45" fill="#5A321E"/>
<path d="M55.2836 25H65.8955V53.8881H55.2836V25Z" fill="#C8A24A"/>
<path d="M55.2836 60.3731H65.8955V104H55.2836L55.2836 60.3731Z" fill="#C8A24A"/>
<path d="M83.5821 55.5358H45.2612C44.8163 55.5143 44.573 55.5106 44.0821 55.427V58.5826C44.5366 58.5065 44.7957 58.4915 45.2612 58.4836H83.5821V55.5358Z" fill="#C8A24A"/>
<path d="M55.2836 40.9179C54.8935 32.8057 53.0735 29.5569 44.6716 27.9478L55.2836 27.9478L55.2836 40.9179Z" fill="#C8A24A"/>
<path d="M55.2836 88.0821C54.8935 96.1943 53.0735 99.4431 44.6716 101.052L55.2836 101.052L55.2836 88.0821Z" fill="#C8A24A"/>
<path d="M44.0821 25H55.2836V27.9478H44.6716L44.0821 25Z" fill="#C8A24A"/>
<path d="M44.0821 104H55.2836V101.052H44.6716L44.0821 104Z" fill="#C8A24A"/>
<path d="M65.8955 32.6642C65.911 30.8485 67.0746 29.1269 70.6119 29.1269H65.8955L65.8955 32.6642Z" fill="#C8A24A"/>
<path d="M65.8955 96.3358C65.911 98.1515 67.0746 99.8731 70.6119 99.8731H65.8955L65.8955 96.3358Z" fill="#C8A24A"/>
<path d="M65.8955 25H81.2239V29.1269H65.8955V25Z" fill="#C8A24A"/>
<path d="M65.8955 104H81.2239V99.8731H65.8955V104Z" fill="#C8A24A"/>
<path d="M81.2239 58.4836C95.5503 58.4836 104.806 53.8881 104.806 41.5075C104.806 29.1269 95.5503 25 81.2239 25V29.1269C87.1194 29.1269 94.194 32.6642 94.194 41.5075C94.194 50.3507 87.1194 55.5358 81.2239 55.5358V58.4836Z" fill="#C8A24A"/>
<path d="M83.5821 55.5358C102.448 55.5358 109.522 65.6791 109.522 79.2388C109.522 93.9776 102.448 104 81.2239 104V99.8731C91.8358 99.8731 97.1418 92.209 97.1418 79.2388C97.1418 67.4478 91.8358 58.4836 83.5821 58.4836V55.5358Z" fill="#C8A24A"/>
<path d="M34.0597 33.2537C34.0597 33.2537 35.3546 52.0036 38.1866 53.8881C41.0185 55.7725 57.6418 56.8358 57.6418 56.8358C57.6418 56.8358 41.1343 58.6045 39.2499 59.6678C37.3655 60.7311 36.4179 62.1418 36.4179 63.9104C36.4179 68.6269 34.0597 104 34.0597 104C34.0597 104 31.7015 68.6269 31.7015 63.9104C31.7015 62.1418 30.7539 60.7311 28.8695 59.6678C26.9851 58.6045 10.4776 56.8358 10.4776 56.8358C10.4776 56.8358 27.1008 55.7725 29.9328 53.8881C32.7648 52.0036 34.0597 33.2537 34.0597 33.2537Z" fill="#C8A24A"/>
<path d="M38.1866 53.8881L39.2499 59.6678C39.8175 59.3475 41.7118 58.9633 44.0821 58.5826V55.427C41.3756 55.002 39.0858 54.4864 38.1866 53.8881Z" fill="#C8A24A"/>
</g>
<defs>
<clipPath id="clip0_22_244">
<rect width="128" height="128" fill="white"/>
</clipPath>
</defs>
</svg>
