<svg width="128" height="128" viewBox="0 0 128 128" fill="none" xmlns="http://www.w3.org/2000/svg">
<g clip-path="url(#clip0_20_159)">
<circle cx="63.5" cy="63.5" r="54.5" fill="#C8A24A"/>
<path d="M83 0C107.853 0 128 20.1472 128 45V83C128 107.853 107.853 128 83 128H45C20.1472 128 0 107.853 0 83V45C0 20.1472 20.1472 0 45 0H83ZM41.2832 27.873C49.4723 29.4414 51.2467 32.608 51.627 40.5146V50.8584H61.9697V32.4697C61.985 30.7002 63.1199 29.0225 66.5674 29.0225H76.9102C82.6564 29.0225 89.5527 32.4704 89.5527 41.0898C89.5526 49.709 82.6564 53.1562 76.9102 53.1562H40.125C38.6326 52.3905 37.1388 51.4484 36.043 50.3525C32.8321 47.1416 30.9404 40.5146 30.9404 40.5146C30.9404 40.5146 29.0487 47.1416 25.8379 50.3525C22.6306 53.5598 16.015 55.4508 16 55.4551C16 55.4551 22.627 57.3467 25.8379 60.5576C29.0488 63.7685 30.9404 70.3955 30.9404 70.3955C30.9462 70.3754 32.8369 63.7636 36.043 60.5576C37.1389 59.4618 38.6326 58.5196 40.125 57.7539H79.209C87.2537 57.7539 92.4256 66.3729 92.4258 77.8652C92.4258 90.507 87.2534 97.9775 76.9102 97.9775H66.5674C63.1199 97.9775 61.985 96.2998 61.9697 94.5303V60.0518H51.627V86.4854C51.2467 94.392 49.4723 97.5586 41.2832 99.127L40.709 102H76.9102C97.5967 102 104.492 92.2309 104.492 77.8652C104.492 68.0551 100.692 59.1966 91.2139 55.2812C96.717 52.7815 99.8954 48.2519 99.8955 41.0898C99.8955 29.0227 90.8739 25 76.9102 25H40.709L41.2832 27.873Z" fill="#5A321E"/>
</g>
<defs>
<clipPath id="clip0_20_159">
<rect width="128" height="128" fill="white"/>
</clipPath>
</defs>
</svg>
